<svg width="129" height="24" viewBox="0 0 129 24" fill="none" xmlns="http://www.w3.org/2000/svg">
<path d="M11.528 5.464V8.272L0.728 11.656V8.968L11.528 5.464ZM0.728 10.552L11.528 13.936V16.768L0.728 13.264V10.552ZM3.128 10.168V12.136H2.408V10.168H3.128ZM23.306 19.456C21.722 19.456 20.362 19.176 19.226 18.616C18.09 18.056 17.162 17.328 16.442 16.432C15.738 15.536 15.218 14.56 14.882 13.504C14.546 12.448 14.378 11.432 14.378 10.456V9.928C14.378 8.84 14.546 7.768 14.882 6.712C15.234 5.656 15.77 4.696 16.49 3.832C17.21 2.968 18.122 2.28 19.226 1.768C20.346 1.24 21.666 0.975999 23.186 0.975999C24.77 0.975999 26.146 1.264 27.314 1.84C28.498 2.4 29.442 3.2 30.146 4.24C30.85 5.264 31.274 6.464 31.418 7.84H27.986C27.858 7.04 27.57 6.368 27.122 5.824C26.69 5.264 26.138 4.848 25.466 4.576C24.794 4.288 24.034 4.144 23.186 4.144C22.322 4.144 21.554 4.296 20.882 4.6C20.21 4.888 19.65 5.304 19.202 5.848C18.754 6.392 18.41 7.032 18.17 7.768C17.946 8.504 17.834 9.32 17.834 10.216C17.834 11.08 17.946 11.88 18.17 12.616C18.41 13.352 18.762 14 19.226 14.56C19.69 15.104 20.258 15.528 20.93 15.832C21.618 16.136 22.41 16.288 23.306 16.288C24.618 16.288 25.722 15.968 26.618 15.328C27.53 14.672 28.082 13.76 28.274 12.592H31.706C31.546 13.84 31.122 14.984 30.434 16.024C29.746 17.064 28.802 17.896 27.602 18.52C26.402 19.144 24.97 19.456 23.306 19.456ZM42.2139 19V15.136H41.6619V10.84C41.6619 10.088 41.4779 9.528 41.1099 9.16C40.7419 8.792 40.1739 8.608 39.4059 8.608C39.0059 8.608 38.5259 8.616 37.9659 8.632C37.4059 8.648 36.8379 8.672 36.2619 8.704C35.7019 8.72 35.1979 8.744 34.7499 8.776V5.944C35.1179 5.912 35.5339 5.88 35.9979 5.848C36.4619 5.816 36.9339 5.8 37.4139 5.8C37.9099 5.784 38.3739 5.776 38.8059 5.776C40.1499 5.776 41.2619 5.952 42.1419 6.304C43.0379 6.656 43.7099 7.208 44.1579 7.96C44.6219 8.712 44.8539 9.696 44.8539 10.912V19H42.2139ZM38.0139 19.336C37.0699 19.336 36.2379 19.168 35.5179 18.832C34.8139 18.496 34.2619 18.016 33.8619 17.392C33.4779 16.768 33.2859 16.016 33.2859 15.136C33.2859 14.176 33.5179 13.392 33.9819 12.784C34.4619 12.176 35.1259 11.72 35.9739 11.416C36.8379 11.112 37.8459 10.96 38.9979 10.96H42.0219V12.952H38.9499C38.1819 12.952 37.5899 13.144 37.1739 13.528C36.7739 13.896 36.5739 14.376 36.5739 14.968C36.5739 15.56 36.7739 16.04 37.1739 16.408C37.5899 16.776 38.1819 16.96 38.9499 16.96C39.4139 16.96 39.8379 16.88 40.2219 16.72C40.6219 16.544 40.9499 16.256 41.2059 15.856C41.4779 15.44 41.6299 14.88 41.6619 14.176L42.4779 15.112C42.3979 16.024 42.1739 16.792 41.8059 17.416C41.4539 18.04 40.9579 18.52 40.3179 18.856C39.6939 19.176 38.9259 19.336 38.0139 19.336ZM48.4273 23.8V5.968H51.0673V11.584L50.6593 11.56C50.7233 10.232 50.9953 9.12 51.4753 8.224C51.9713 7.328 52.6273 6.664 53.4433 6.232C54.2593 5.784 55.1713 5.56 56.1793 5.56C57.1073 5.56 57.9393 5.728 58.6753 6.064C59.4273 6.4 60.0673 6.872 60.5953 7.48C61.1393 8.088 61.5553 8.8 61.8433 9.616C62.1313 10.416 62.2753 11.28 62.2753 12.208V12.712C62.2753 13.656 62.1313 14.536 61.8433 15.352C61.5713 16.152 61.1633 16.864 60.6193 17.488C60.0913 18.096 59.4513 18.576 58.6993 18.928C57.9473 19.264 57.1073 19.432 56.1793 19.432C55.2033 19.432 54.3073 19.232 53.4913 18.832C52.6913 18.416 52.0433 17.784 51.5473 16.936C51.0513 16.072 50.7713 14.96 50.7073 13.6L51.7633 15.208V23.8H48.4273ZM55.3393 16.624C56.0593 16.624 56.6833 16.448 57.2113 16.096C57.7553 15.744 58.1793 15.256 58.4833 14.632C58.7873 13.992 58.9393 13.272 58.9393 12.472C58.9393 11.64 58.7873 10.92 58.4833 10.312C58.1793 9.704 57.7553 9.232 57.2113 8.896C56.6833 8.544 56.0593 8.368 55.3393 8.368C54.6833 8.368 54.0753 8.512 53.5153 8.8C52.9713 9.088 52.5233 9.512 52.1713 10.072C51.8353 10.632 51.6673 11.304 51.6673 12.088V13.048C51.6673 13.8 51.8433 14.44 52.1953 14.968C52.5473 15.496 53.0033 15.904 53.5633 16.192C54.1233 16.48 54.7153 16.624 55.3393 16.624ZM71.0405 19.456C69.9205 19.456 68.9365 19.264 68.0885 18.88C67.2565 18.496 66.5605 17.984 66.0005 17.344C65.4565 16.688 65.0405 15.96 64.7525 15.16C64.4805 14.36 64.3445 13.544 64.3445 12.712V12.256C64.3445 11.392 64.4805 10.56 64.7525 9.76C65.0405 8.944 65.4565 8.224 66.0005 7.6C66.5605 6.96 67.2485 6.456 68.0645 6.088C68.8805 5.704 69.8245 5.512 70.8965 5.512C72.3045 5.512 73.4805 5.824 74.4245 6.448C75.3845 7.056 76.1045 7.864 76.5845 8.872C77.0645 9.864 77.3045 10.936 77.3045 12.088V13.288H65.7605V11.248H75.2165L74.1845 12.256C74.1845 11.424 74.0645 10.712 73.8245 10.12C73.5845 9.528 73.2165 9.072 72.7205 8.752C72.2405 8.432 71.6325 8.272 70.8965 8.272C70.1605 8.272 69.5365 8.44 69.0245 8.776C68.5125 9.112 68.1205 9.6 67.8485 10.24C67.5925 10.864 67.4645 11.616 67.4645 12.496C67.4645 13.312 67.5925 14.04 67.8485 14.68C68.1045 15.304 68.4965 15.8 69.0245 16.168C69.5525 16.52 70.2245 16.696 71.0405 16.696C71.8565 16.696 72.5205 16.536 73.0325 16.216C73.5445 15.88 73.8725 15.472 74.0165 14.992H77.0885C76.8965 15.888 76.5285 16.672 75.9845 17.344C75.4405 18.016 74.7445 18.536 73.8965 18.904C73.0645 19.272 72.1125 19.456 71.0405 19.456ZM80.2593 19V1.48H83.5953V19H80.2593ZM78.6273 3.976V1.48H83.5953V3.976H78.6273ZM87.5718 19V1.48H90.9078V19H87.5718ZM85.9398 3.976V1.48H90.9078V3.976H85.9398ZM102.612 19V15.136H102.06V10.84C102.06 10.088 101.876 9.528 101.508 9.16C101.14 8.792 100.572 8.608 99.8043 8.608C99.4043 8.608 98.9243 8.616 98.3643 8.632C97.8043 8.648 97.2363 8.672 96.6603 8.704C96.1003 8.72 95.5963 8.744 95.1483 8.776V5.944C95.5163 5.912 95.9323 5.88 96.3963 5.848C96.8603 5.816 97.3323 5.8 97.8123 5.8C98.3083 5.784 98.7723 5.776 99.2043 5.776C100.548 5.776 101.66 5.952 102.54 6.304C103.436 6.656 104.108 7.208 104.556 7.96C105.02 8.712 105.252 9.696 105.252 10.912V19H102.612ZM98.4123 19.336C97.4683 19.336 96.6363 19.168 95.9163 18.832C95.2123 18.496 94.6603 18.016 94.2603 17.392C93.8763 16.768 93.6843 16.016 93.6843 15.136C93.6843 14.176 93.9163 13.392 94.3803 12.784C94.8603 12.176 95.5243 11.72 96.3723 11.416C97.2363 11.112 98.2443 10.96 99.3963 10.96H102.42V12.952H99.3483C98.5803 12.952 97.9883 13.144 97.5723 13.528C97.1723 13.896 96.9723 14.376 96.9723 14.968C96.9723 15.56 97.1723 16.04 97.5723 16.408C97.9883 16.776 98.5803 16.96 99.3483 16.96C99.8123 16.96 100.236 16.88 100.62 16.72C101.02 16.544 101.348 16.256 101.604 15.856C101.876 15.44 102.028 14.88 102.06 14.176L102.876 15.112C102.796 16.024 102.572 16.792 102.204 17.416C101.852 18.04 101.356 18.52 100.716 18.856C100.092 19.176 99.3243 19.336 98.4123 19.336ZM107.434 20.44L112.378 0.279999H115.714L110.77 20.44H107.434ZM117.916 16.768V13.96L128.716 10.576V13.264L117.916 16.768ZM128.716 11.68L117.916 8.296V5.464L128.716 8.968V11.68ZM126.316 12.064V10.096H127.036V12.064H126.316Z" fill="#2688FA"/>
</svg>
