<svg width="448" height="448" viewBox="0 0 448 448" fill="none" xmlns="http://www.w3.org/2000/svg">
<circle cx="224" cy="224" r="224" fill="white"/>
<path d="M112.67 316C108.959 316 105.733 314.629 102.99 311.886C100.409 309.143 99.118 305.917 99.118 302.206V153.134C99.118 149.423 100.409 146.197 102.99 143.454C105.733 140.711 108.959 139.34 112.67 139.34H120.414C124.125 139.34 127.351 140.711 130.094 143.454C132.837 146.197 134.208 149.423 134.208 153.134V285.75C134.208 287.202 134.853 287.928 136.144 287.928H198.338C202.049 287.928 205.195 289.299 207.776 292.042C210.519 294.623 211.89 297.769 211.89 301.48V302.206C211.89 305.917 210.519 309.143 207.776 311.886C205.195 314.629 202.049 316 198.338 316H112.67ZM304.05 318.42C278.56 318.42 258.312 310.595 243.308 294.946C228.466 279.135 221.044 256.71 221.044 227.67C221.044 198.953 228.224 176.689 242.582 160.878C257.102 144.906 277.35 136.92 303.324 136.92C315.263 136.92 325.266 137.646 333.332 139.098C337.204 139.743 340.431 141.679 343.012 144.906C345.594 148.133 346.884 151.763 346.884 155.796V157.732C346.884 161.12 345.432 163.782 342.528 165.718C339.786 167.654 336.801 168.219 333.574 167.412C325.669 165.315 316.796 164.266 306.954 164.266C290.982 164.266 278.398 169.751 269.202 180.722C260.168 191.693 255.65 207.342 255.65 227.67C255.65 247.837 260.329 263.486 269.686 274.618C279.205 285.589 291.87 291.074 307.68 291.074C318.328 291.074 327.444 290.106 335.026 288.17C338.253 287.363 341.238 287.928 343.98 289.864C346.884 291.8 348.336 294.462 348.336 297.85V299.544C348.336 303.577 347.046 307.207 344.464 310.434C342.044 313.499 338.818 315.355 334.784 316C325.588 317.613 315.344 318.42 304.05 318.42Z" fill="#2375D5"/>
</svg>
