<svg width="8" height="9" viewBox="0 0 16 13" fill="none" xmlns="http://www.w3.org/2000/svg">
<path d="M1.025 12C0.795 12 0.595 11.915 0.425 11.745C0.265 11.575 0.185 11.375 0.185 11.145V1.905C0.185 1.675 0.265 1.475 0.425 1.305C0.595 1.135 0.795 1.05 1.025 1.05H1.505C1.735 1.05 1.935 1.135 2.105 1.305C2.275 1.475 2.36 1.675 2.36 1.905V10.125C2.36 10.215 2.4 10.26 2.48 10.26H6.335C6.565 10.26 6.76 10.345 6.92 10.515C7.09 10.675 7.175 10.87 7.175 11.1V11.145C7.175 11.375 7.09 11.575 6.92 11.745C6.76 11.915 6.565 12 6.335 12H1.025ZM12.8874 12.15C11.3074 12.15 10.0524 11.665 9.12242 10.695C8.20242 9.715 7.74242 8.325 7.74242 6.525C7.74242 4.745 8.18742 3.365 9.07742 2.385C9.97742 1.395 11.2324 0.9 12.8424 0.9C13.5824 0.9 14.2024 0.945 14.7024 1.035C14.9424 1.075 15.1424 1.195 15.3024 1.395C15.4624 1.595 15.5424 1.82 15.5424 2.07V2.19C15.5424 2.4 15.4524 2.565 15.2724 2.685C15.1024 2.805 14.9174 2.84 14.7174 2.79C14.2274 2.66 13.6774 2.595 13.0674 2.595C12.0774 2.595 11.2974 2.935 10.7274 3.615C10.1674 4.295 9.88742 5.265 9.88742 6.525C9.88742 7.775 10.1774 8.745 10.7574 9.435C11.3474 10.115 12.1324 10.455 13.1124 10.455C13.7724 10.455 14.3374 10.395 14.8074 10.275C15.0074 10.225 15.1924 10.26 15.3624 10.38C15.5424 10.5 15.6324 10.665 15.6324 10.875V10.98C15.6324 11.23 15.5524 11.455 15.3924 11.655C15.2424 11.845 15.0424 11.96 14.7924 12C14.2224 12.1 13.5874 12.15 12.8874 12.15Z" fill="#2375D5"/>
</svg>
