<svg width="37" height="27" viewBox="0 0 37 27" fill="none" xmlns="http://www.w3.org/2000/svg">
<path d="M2.725 26C2.18833 26 1.72167 25.8017 1.325 25.405C0.951667 25.0083 0.765 24.5417 0.765 24.005V2.445C0.765 1.90833 0.951667 1.44167 1.325 1.045C1.72167 0.648332 2.18833 0.449999 2.725 0.449999H3.845C4.38167 0.449999 4.84833 0.648332 5.245 1.045C5.64167 1.44167 5.84 1.90833 5.84 2.445V21.625C5.84 21.835 5.93333 21.94 6.12 21.94H15.115C15.6517 21.94 16.1067 22.1383 16.48 22.535C16.8767 22.9083 17.075 23.3633 17.075 23.9V24.005C17.075 24.5417 16.8767 25.0083 16.48 25.405C16.1067 25.8017 15.6517 26 15.115 26H2.725ZM30.404 26.35C26.7173 26.35 23.789 25.2183 21.619 22.955C19.4723 20.6683 18.399 17.425 18.399 13.225C18.399 9.07167 19.4373 5.85167 21.514 3.565C23.614 1.255 26.5423 0.0999997 30.299 0.0999997C32.0257 0.0999997 33.4723 0.205 34.639 0.415C35.199 0.508332 35.6657 0.788332 36.039 1.255C36.4123 1.72167 36.599 2.24667 36.599 2.83V3.11C36.599 3.6 36.389 3.985 35.969 4.265C35.5723 4.545 35.1407 4.62667 34.674 4.51C33.5307 4.20667 32.2473 4.055 30.824 4.055C28.514 4.055 26.694 4.84833 25.364 6.435C24.0573 8.02167 23.404 10.285 23.404 13.225C23.404 16.1417 24.0807 18.405 25.434 20.015C26.8107 21.6017 28.6423 22.395 30.929 22.395C32.469 22.395 33.7873 22.255 34.884 21.975C35.3507 21.8583 35.7823 21.94 36.179 22.22C36.599 22.5 36.809 22.885 36.809 23.375V23.62C36.809 24.2033 36.6223 24.7283 36.249 25.195C35.899 25.6383 35.4323 25.9067 34.849 26C33.519 26.2333 32.0373 26.35 30.404 26.35Z" fill="#2375D5"/>
</svg>
